<?xml version="1.0" encoding="utf-8"?>
<!-- Generator: Adobe Illustrator 23.0.2, SVG Export Plug-In . SVG Version: 6.00 Build 0)  -->
<svg version="1.1" id="Vrstva_1" xmlns="http://www.w3.org/2000/svg" xmlns:xlink="http://www.w3.org/1999/xlink" x="0px" y="0px"
	 viewBox="0 0 589 392" style="enable-background:new 0 0 589 392;" xml:space="preserve">
<style type="text/css">
	.st0{fill:#EE7E2A;}
</style>
<g>
	<path class="st0" d="M128.16,90.45c-32.94,23.69-61.17,53.9-82.57,88.37c-3.92,6.31-7.66,12.9-9.17,20.17s-0.49,15.41,4.31,21.08
		c6.23,7.36,16.92,8.82,26.57,8.93c9.65,0.11,30.86,0.66,39.2,5.5c8.12,4.72,3.62,40.82,2.2,50.1c-1.47,9.61-3.07,19.52,0.79,28.83
		c1.8,4.35,4.87,8.14,9.05,10.32c13.04,6.78,26.03-5.77,29.05-18.71c2.73-11.65,0.31-23.86,1.2-35.79
		c0.89-11.93,0.06-26.01,11.7-28.75c10.23-2.41,29.55,4.59,37.27-2.94c4.66-4.55,8.47-15.73,4.73-21.06c-4.15-5.93-12-6-18-8
		c-5.07-1.69-12.23-1.94-17.91-2.19c-2.12-0.09-11.89-2.84-11.09-4.81c3.32-8.1,3.84-17.48-5-23c-8-5-11.14-5.51-20,3
		c-4.53,4.35-2.82,13.31-7,18s-23.87,5.02-29.58,2.42c-4.98-2.26-7.17-8.55-6.14-13.92c1.04-5.37,4.61-9.9,8.57-13.67
		c8.78-8.36,17.72-20.91,28.33-26.49c10.06-5.28,18.79-12.74,25.49-21.91c7.08-9.69,12.2-14.63,7.32-25.43
		c-4.81-10.64-18.85-17.13-28.74-10.93"/>
	<g>
		<path d="M127.4,89.15c-27.64,20-51.98,44.29-71.85,72.04c-8.83,12.33-20.71,27.15-21.26,42.98c-0.51,14.9,10.02,23.78,23.98,25.7
			c13.24,1.83,26.66,0.22,39.83,3.24c5.41,1.24,9.1,2.49,10.48,8.15c1.31,5.35,1.23,11.1,1.08,16.56
			c-0.29,10.84-1.85,21.47-3.28,32.19c-1.8,13.5-0.45,32.97,15.92,36.7c12.81,2.93,23.57-9.38,26.54-20.61
			c2.36-8.92,1.44-18.31,1.27-27.42c-0.15-7.82,0.04-16.17,1.33-23.91c1.28-7.68,5.02-12.95,13.27-13.31
			c6.44-0.28,12.86,1.02,19.28,1.16c4.94,0.1,10.56-0.26,14.44-3.69c4.02-3.56,6.39-9.57,6.94-14.8c0.59-5.64-1.69-10.19-6.73-12.9
			c-5.53-2.98-13.23-4.52-19.4-5.46c-6.19-0.94-12.45-0.37-18.43-2.46c-0.75-0.26-3.12-0.79-3.49-1.56
			c-0.49-1.02,0.95-3.76,1.2-4.84c0.62-2.71,0.88-5.53,0.46-8.29c-1.41-9.29-13.63-18.76-22.75-13.65
			c-5.61,3.15-9.21,7.5-10.58,13.73c-0.71,3.25-0.96,7.66-3.58,10.03c-1.89,1.72-5.01,2.21-7.44,2.62
			c-5.7,0.97-12.68,1.36-18.32-0.23c-9.52-2.67-8.16-14.03-3.65-20.44c4.68-6.66,11.51-12.49,17.09-18.43
			c6.06-6.45,12.4-10.97,19.89-15.53c6.76-4.12,12.9-9.3,18.05-15.31c4.39-5.12,9.56-11.07,12.05-17.4
			c4.56-11.56-5.35-24.07-16.14-27.4c-5.32-1.64-10.8-1.11-15.63,1.65c-1.68,0.96-0.17,3.55,1.51,2.59
			c13.8-7.88,34.27,8.69,26.71,23.71c-7.24,14.38-20.07,24.68-33.56,32.67c-5.94,3.52-10.88,8.48-15.56,13.5
			c-5.07,5.42-10.7,10.63-15.4,16.36c-6.04,7.35-9.18,21.43,1.81,26.26c7.5,3.3,19.79,2.46,27.27-0.49c4.1-1.61,5.8-4.83,6.87-8.97
			c0.76-2.95,0.93-6.15,2.29-8.92c1.65-3.36,5.59-6.66,9.11-8.01c6.65-2.55,15.48,5.09,16.84,11.26c0.76,3.45,0.13,7.1-0.94,10.41
			c-0.49,1.52-1.43,2.86-0.6,4.38c1.53,2.79,7.55,3.98,10.33,4.5c6.23,1.17,12.55,0.51,18.76,2.23c6.33,1.76,16.84,2.49,18.84,10.06
			c1.55,5.87-2.35,15.37-7.73,18.21c-10.5,5.54-23.95-1.95-35.05,1.2c-10.73,3.04-11.35,15.57-11.89,24.82
			c-0.47,8.09-0.36,16.05-0.21,24.15c0.17,8.98-0.25,18.39-5.5,26.04c-4.75,6.91-12.92,12.25-21.39,8.73
			c-9.3-3.86-12.08-14.64-11.91-23.84c0.2-10.68,2.77-21.41,3.58-32.08c0.7-9.14,1.85-20-1.36-28.82
			c-2.96-8.13-14.02-8.67-21.38-9.53c-12.42-1.45-26.49,0.7-38.37-3.55c-8.88-3.18-13.88-10.84-13.8-20.22
			c0.08-8.69,4.31-16.64,8.71-23.89c16.91-27.79,38.52-52.81,63.28-73.9c6.34-5.4,12.9-10.52,19.65-15.4
			C130.47,90.62,128.97,88.02,127.4,89.15L127.4,89.15z"/>
	</g>
</g>
<g>
	<path class="st0" d="M476.16,90.45c-32.94,23.69-61.17,53.9-82.57,88.37c-3.92,6.31-7.66,12.9-9.17,20.17
		c-1.51,7.27-0.49,15.41,4.31,21.08c6.23,7.36,16.92,8.82,26.57,8.93c9.65,0.11,30.86,0.66,39.2,5.5c8.12,4.72,3.62,40.82,2.2,50.1
		c-1.47,9.61-3.07,19.52,0.79,28.83c1.8,4.35,4.87,8.14,9.05,10.32c13.04,6.78,26.03-5.77,29.05-18.71
		c2.73-11.65,0.31-23.86,1.2-35.79c0.89-11.93,0.06-26.01,11.7-28.75c10.23-2.41,29.55,4.59,37.27-2.94
		c4.66-4.55,8.47-15.73,4.73-21.06c-4.15-5.93-12-6-18-8c-5.07-1.69-12.23-1.94-17.91-2.19c-2.12-0.09-11.89-2.84-11.09-4.81
		c3.32-8.1,3.84-17.48-5-23c-8-5-11.14-5.51-20,3c-4.53,4.35-2.82,13.31-7,18s-23.87,5.02-29.58,2.42
		c-4.98-2.26-7.17-8.55-6.14-13.92c1.04-5.37,4.61-9.9,8.57-13.67c8.78-8.36,17.72-20.91,28.33-26.49
		c10.06-5.28,18.79-12.74,25.49-21.91c7.08-9.69,12.2-14.63,7.32-25.43c-4.81-10.64-18.85-17.13-28.74-10.93"/>
	<g>
		<path d="M475.4,89.15c-27.64,20-51.98,44.29-71.85,72.04c-8.83,12.33-20.71,27.15-21.26,42.98c-0.51,14.9,10.02,23.78,23.98,25.7
			c13.24,1.83,26.66,0.22,39.83,3.24c5.41,1.24,9.1,2.49,10.48,8.15c1.31,5.35,1.23,11.1,1.08,16.56
			c-0.29,10.84-1.85,21.47-3.28,32.19c-1.8,13.5-0.45,32.97,15.92,36.7c12.81,2.93,23.57-9.38,26.54-20.61
			c2.36-8.92,1.44-18.31,1.27-27.42c-0.15-7.82,0.04-16.17,1.33-23.91c1.28-7.68,5.02-12.95,13.27-13.31
			c6.44-0.28,12.86,1.02,19.28,1.16c4.94,0.1,10.56-0.26,14.44-3.69c4.02-3.56,6.39-9.57,6.94-14.8c0.59-5.64-1.69-10.19-6.73-12.9
			c-5.53-2.98-13.23-4.52-19.4-5.46c-6.19-0.94-12.45-0.37-18.43-2.46c-0.75-0.26-3.12-0.79-3.49-1.56
			c-0.49-1.02,0.95-3.76,1.2-4.84c0.62-2.71,0.88-5.53,0.46-8.29c-1.41-9.29-13.63-18.76-22.75-13.65
			c-5.61,3.15-9.21,7.5-10.58,13.73c-0.71,3.25-0.96,7.66-3.58,10.03c-1.89,1.72-5.01,2.21-7.44,2.62
			c-5.7,0.97-12.68,1.36-18.32-0.23c-9.52-2.67-8.16-14.03-3.65-20.44c4.68-6.66,11.51-12.49,17.09-18.43
			c6.06-6.45,12.4-10.97,19.89-15.53c6.76-4.12,12.9-9.3,18.05-15.31c4.39-5.12,9.56-11.07,12.05-17.4
			c4.56-11.56-5.35-24.07-16.14-27.4c-5.32-1.64-10.8-1.11-15.63,1.65c-1.68,0.96-0.17,3.55,1.51,2.59
			c13.8-7.88,34.27,8.69,26.71,23.71c-7.24,14.38-20.07,24.68-33.56,32.67c-5.94,3.52-10.88,8.48-15.56,13.5
			c-5.07,5.42-10.7,10.63-15.4,16.36c-6.04,7.35-9.18,21.43,1.81,26.26c7.5,3.3,19.79,2.46,27.27-0.49c4.1-1.61,5.8-4.83,6.87-8.97
			c0.76-2.95,0.93-6.15,2.29-8.92c1.65-3.36,5.59-6.66,9.11-8.01c6.65-2.55,15.48,5.09,16.84,11.26c0.76,3.45,0.13,7.1-0.94,10.41
			c-0.49,1.52-1.43,2.86-0.6,4.38c1.53,2.79,7.55,3.98,10.33,4.5c6.23,1.17,12.55,0.51,18.76,2.23c6.33,1.76,16.84,2.49,18.84,10.06
			c1.55,5.87-2.35,15.37-7.73,18.21c-10.5,5.54-23.95-1.95-35.05,1.2c-10.73,3.04-11.35,15.57-11.89,24.82
			c-0.47,8.09-0.36,16.05-0.21,24.15c0.17,8.98-0.25,18.39-5.5,26.04c-4.75,6.91-12.92,12.25-21.39,8.73
			c-9.3-3.86-12.08-14.64-11.91-23.84c0.2-10.68,2.77-21.41,3.58-32.08c0.7-9.14,1.85-20-1.36-28.82
			c-2.96-8.13-14.02-8.67-21.38-9.53c-12.42-1.45-26.49,0.7-38.37-3.55c-8.88-3.18-13.88-10.84-13.8-20.22
			c0.08-8.69,4.31-16.64,8.71-23.89c16.91-27.79,38.52-52.81,63.28-73.9c6.34-5.4,12.9-10.52,19.65-15.4
			C478.47,90.62,476.97,88.02,475.4,89.15L475.4,89.15z"/>
	</g>
</g>
<g>
	<path class="st0" d="M366.41,153.1c-9.45-22.71-28.04-42.36-51.68-49.18s-38.43-7.84-55.24,9.58
		c-14.78,15.32-34.45,46.99-41.93,74.09c-8.36,30.3-8.15,64.1,6.83,91.74c14.97,27.64,46.68,47.18,77.71,42.16
		c21.17-3.42,39.65-17.56,51.54-35.41c11.89-17.85,17.74-39.13,20.36-60.42C377.01,201.26,375.86,175.81,366.41,153.1z
		 M305.63,228.56c-2.21,6.77-5.36,13.58-10.96,17.97c-5.6,4.4-14.19,5.65-19.77,1.22c-5.73-4.54-6.38-12.83-6.56-20.13
		c-0.2-7.77-0.38-15.64,1.4-23.2c1.78-7.56,5.77-14.92,12.3-19.12l-4.95,1.56c6.03-4.42,14.89-3.78,21.01,0.54
		c6.11,4.31,9.62,11.66,10.49,19.09S307.94,221.45,305.63,228.56z"/>
	<g>
		<path d="M367.71,152.34c-7.59-17.85-20.36-33.83-37.39-43.46c-8.37-4.73-17.64-7.48-27.01-9.43c-7.61-1.58-15.54-2.4-23.18-0.56
			c-16.61,4-28.01,19.63-37.13,32.99c-12.14,17.78-22.43,37.62-27.74,58.57c-10.19,40.22-4.71,87.81,29.31,115.37
			c14.45,11.7,32.92,19.05,51.7,17.83c19.34-1.25,37.01-11.49,49.91-25.61c16.72-18.3,24.96-42.66,28.55-66.8
			c3.91-26.27,3.21-53.67-6.89-78.54c-0.72-1.77-3.62-0.99-2.89,0.8c8.37,20.61,10.23,42.98,8.29,64.99
			c-1.9,21.62-6.96,43.61-18.14,62.42c-10.03,16.87-25.56,31.1-44.52,37.03c-18.19,5.69-37.65,2.23-53.89-7.32
			c-36.55-21.49-47.7-65.55-41.45-105.29c3.11-19.76,10.4-38.23,20.19-55.61c8.53-15.13,19.01-32.54,33.64-42.55
			c15.9-10.89,38.13-5.91,54.5,1.63c19.18,8.82,33.37,25.88,41.52,45.05C365.87,155.63,368.45,154.1,367.71,152.34z"/>
		<path d="M304.18,228.17c-2.76,8.2-7.18,17.63-16.29,20.18c-9.59,2.69-16.02-3.72-17.47-12.73c-1.25-7.77-1.13-16.32-0.34-24.13
			c0.97-9.62,4.47-19.18,12.7-24.89c1.32-0.92,0.56-3.28-1.16-2.74c-1.65,0.52-3.3,1.04-4.95,1.56c0.39,0.91,0.77,1.83,1.16,2.74
			c9.5-6.25,21.23-1.12,26.16,8.38C309.17,206.53,307.42,217.87,304.18,228.17c-0.58,1.85,2.31,2.64,2.89,0.8
			c3.83-12.18,5.45-26.31-2.57-37.25c-6.48-8.84-18.7-12.38-28.18-6.14c-1.36,0.9-0.54,3.28,1.16,2.74c1.65-0.52,3.3-1.04,4.95-1.56
			c-0.39-0.91-0.77-1.83-1.16-2.74c-8.59,5.96-12.73,15.56-13.98,25.7c-0.79,6.38-0.66,12.88-0.42,19.3
			c0.17,4.4,0.52,8.95,2.18,13.07c3.46,8.6,12.47,11.86,21,8.7c9.37-3.47,14.03-12.94,17.02-21.82
			C307.69,227.13,304.79,226.34,304.18,228.17z"/>
	</g>
</g>
</svg>
